Coordinates
version=1
nRows=7
nColumns=46
inDegrees=yes

Units are S.I. units (second, meters, Newtons, ...)
Angles are in degrees.

endheader
time	pelvis_tilt	pelvis_list	pelvis_rotation	pelvis_tx	pelvis_ty	pelvis_tz	bb_angle	bb_tx	bb_ty	bb_tz	hip_flexion_r	hip_adduction_r	hip_rotation_r	knee_angle_r	knee_angle_r_beta	ankle_angle_r	subtalar_angle_r	mtp_angle_r	crank_angle_r	hip_flexion_l	hip_adduction_l	hip_rotation_l	knee_angle_l	knee_angle_l_beta	ankle_angle_l	subtalar_angle_l	mtp_angle_l	crank_angle_l	lumbar_extension	lumbar_bending	lumbar_rotation	arm_flex_r	arm_add_r	arm_rot_r	elbow_flex_r	pro_sup_r	wrist_flex_r	wrist_dev_r	arm_flex_l	arm_add_l	arm_rot_l	elbow_flex_l	pro_sup_l	wrist_flex_l	wrist_dev_l
      0.00500000	    -17.86782338	      5.10190008	      1.40468674	      0.12528984	      1.11863096	     -0.26998073	      0.00000000	      0.50000000	      0.00000000	      0.25000000	     48.28058130	    -10.28549915	     -1.97627679	     52.40198849	      0.91458723	     -1.65096330	     -6.61916651	      0.00000000	      0.00000000	     91.67486285	    -10.21547638	     -4.68290613	    102.16260166	      1.78307377	     18.81929774	      5.04676918	      0.00000000	      0.00000000	    -42.42117802	     -0.75355028	     -9.80257734	     84.53663606	     -4.33819224	     64.49686945	     22.79963635	     29.68657146	      0.00000000	      0.00000000	     78.54091905	    -21.71081076	     83.64315892	     20.94724357	     29.83035586	      0.00000000	      0.00000000
      0.01000000	    -17.79542172	      5.12092566	      1.41012202	      0.12520179	      1.11867875	     -0.26997183	      0.00000000	      0.50000000	      0.00000000	      0.25000000	     48.22147161	    -10.30991864	     -1.96725017	     52.42970431	      0.91507097	     -1.61939660	     -6.59651793	      0.00000000	      0.00000000	     91.60455700	    -10.20678756	     -4.69737552	    102.16538114	      1.78312228	     18.81172352	      5.07971164	      0.00000000	      0.00000000	    -42.54182259	     -0.83923457	     -9.76788700	     84.93991540	     -4.92984931	     64.49919401	     20.97919323	     45.29938989	      0.00000000	      0.00000000	     80.37308975	    -21.61454369	     82.29986701	     15.80521361	     67.34510117	      0.00000000	      0.00000000
      0.01500000	    -17.79594197	      5.12602839	      1.41351858	      0.12522076	      1.11868806	     -0.26995885	      0.00000000	      0.50000000	      0.00000000	      0.25000000	     48.21791960	    -10.31391717	     -1.96809619	     52.42756076	      0.91503355	     -1.62510398	     -6.61929636	      0.00000000	      0.00000000	     91.60045711	    -10.20585868	     -4.70450182	    102.16224231	      1.78306750	     18.80515710	      5.07460344	      0.00000000	      0.00000000	    -42.54058631	     -0.83668364	     -9.78887822	     84.91596266	     -4.86482664	     64.29995524	     20.96726024	     45.08173991	      0.00000000	      0.00000000	     80.29904959	    -21.71176688	     82.53247221	     16.08813103	     65.73202172	      0.00000000	      0.00000000
      0.02000000	    -17.78212356	      5.11547829	      1.44024382	      0.12525809	      1.11873872	     -0.27004678	      0.00000000	      0.50000000	      0.00000000	      0.25000000	     48.15430825	    -10.31606267	     -1.98733091	     52.37823073	      0.91417258	     -1.61142362	     -6.66537730	      0.00000000	      0.00000000	     91.59827036	    -10.17963249	     -4.70449505	    102.15899868	      1.78301089	     18.73818692	      5.01830667	      0.00000000	      0.00000000	    -42.55116516	     -0.75683096	     -9.89364070	     84.90382651	     -4.48133218	     64.08190975	     20.53831054	     44.62257442	      0.00000000	      0.00000000	     79.90058917	    -21.94488894	     83.29437370	     17.00529198	     58.89709271	      0.00000000	      0.00000000
      0.02500000	    -17.77369203	      5.10765854	      1.41824130	      0.12533594	      1.11885556	     -0.27000654	      0.00000000	      0.50000000	      0.00000000	      0.25000000	     48.12435512	    -10.27980429	     -1.95092671	     52.34672638	      0.91362273	     -1.57671120	     -6.62474496	      0.00000000	      0.00000000	     91.56532357	    -10.20231603	     -4.69580257	    102.14671131	      1.78279643	     18.79947757	      5.11505711	      0.00000000	      0.00000000	    -42.56186449	     -0.79307743	     -9.83905313	     84.87900587	     -4.71135362	     64.13686073	     20.92916668	     44.61801942	      0.00000000	      0.00000000	     79.92133960	    -21.75395078	     83.22293288	     16.73166185	     58.91809711	      0.00000000	      0.00000000
      0.03000000	    -17.77274208	      5.11942505	      1.42407193	      0.12534848	      1.11884554	     -0.26999408	      0.00000000	      0.50000000	      0.00000000	      0.25000000	     48.11641822	    -10.28530890	     -1.94061573	     52.33562883	      0.91342904	     -1.52656503	     -6.63848583	      0.00000000	      0.00000000	     91.56267335	    -10.20152551	     -4.70164470	    102.14337490	      1.78273820	     18.77345854	      5.11665296	      0.00000000	      0.00000000	    -42.57053664	     -0.80414430	     -9.86795172	     84.84397699	     -4.73923030	     64.02897749	     21.02407298	     44.69057967	      0.00000000	      0.00000000	     79.95751663	    -21.92860646	     83.68468469	     17.16457144	     57.54145230	      0.00000000	      0.00000000
      0.03500000	    -17.77608432	      5.12125316	      1.41348570	      0.12531603	      1.11881476	     -0.27003116	      0.00000000	      0.50000000	      0.00000000	      0.25000000	     48.13725681	    -10.28627353	     -1.93905891	     52.36106728	      0.91387302	     -1.55809840	     -6.63079463	      0.00000000	      0.00000000	     91.57436247	    -10.20655072	     -4.70901345	    102.14354266	      1.78274113	     18.74950871	      5.09636308	      0.00000000	      0.00000000	    -42.56394427	     -0.79716711	     -9.82648986	     84.96858556	     -4.88562947	     64.73534884	     21.06442443	     44.81720763	      0.00000000	      0.00000000	     79.90913727	    -21.90844804	     83.64964340	     17.23539706	     57.18753533	      0.00000000	      0.00000000
